<?xml version="1.0" encoding="utf-8"?>
<!-- Generator: Adobe Illustrator 16.0.0, SVG Export Plug-In . SVG Version: 6.00 Build 0)  -->
<!DOCTYPE svg PUBLIC "-//W3C//DTD SVG 1.1//EN" "http://www.w3.org/Graphics/SVG/1.1/DTD/svg11.dtd">
<svg version="1.1" id="Ebene_1" xmlns="http://www.w3.org/2000/svg" xmlns:xlink="http://www.w3.org/1999/xlink" x="0px" y="0px"
	 width="8476.275px" height="1064.282px" viewBox="0 0 8476.275 1064.282" enable-background="new 0 0 8476.275 1064.282"
	 xml:space="preserve">
<g>
	<path fill="#0A51A1" d="M8299.766,305.244l-0.443-110.596h88.477v110.596h88.477v-88.476
		c-0.148-28.755-21.973-43.499-65.473-44.239c43.5,0.149,65.324-14.818,65.473-44.902V84.053c0-29.491-29.494-44.238-88.477-44.238
		h-176.953v265.429H8299.766z M8387.799,150.41h-88.477V84.053h88.477V150.41z M8078.131,150.41h-88.477V84.053h88.477V150.41z
		 M8078.131,261.006h-88.477v-66.357h88.477V261.006z M8078.131,305.244c58.982,0,88.479-14.744,88.479-44.237v-44.238
		c-0.15-28.755-21.975-43.499-65.473-44.239c43.498,0.149,65.322-14.818,65.473-44.902V84.053c0-29.491-29.496-44.238-88.479-44.238
		H7901.18v265.429H8078.131z M7679.986,305.244h88.477c58.982,0,88.479-14.744,88.479-44.237V150.853h-132.494l-0.443,43.574
		l44.459,0.442v66.137h-88.477V84.053h88.477v44.238h88.479V84.053c0-29.491-29.496-44.238-88.479-44.238h-88.477
		c-58.984,0-88.475,14.895-88.475,44.68v176.732C7591.512,290.573,7621.002,305.244,7679.986,305.244 M7421.414,305.244v-44.237
		h-176.953v-65.915l132.936,0.221l-0.221-44.681l-132.715,0.222v-66.8h176.953V39.815h-265.43v265.429H7421.414z M6946.295,305.023
		V195.091l88.477,110.374l97.324-0.222l-110.816-132.492l110.596-132.715h-97.104l-88.477,110.817V40.036l-88.477-0.221v265.429
		L6946.295,305.023z M6725.104,261.006h-88.477V84.053h88.477V261.006z M6636.627,305.244h88.477
		c58.982,0,88.477-14.744,88.477-44.237V84.053c0-29.491-29.494-44.238-88.477-44.238h-88.477c-58.984,0-88.477,14.895-88.477,44.68
		v176.732C6548.15,290.573,6577.643,305.244,6636.627,305.244 M6338.461,305.023V195.091l88.477,110.374l97.324-0.222
		l-110.816-132.492l110.596-132.715h-97.104l-88.477,110.817V40.036l-88.477-0.221v265.429L6338.461,305.023z M5902.936,305.023
		V195.091h88.918l-0.441,110.374l88.477-0.222l-0.223-265.208h-88.254l0.441,110.817h-88.918V40.036l-88.477-0.221v265.429
		L5902.936,305.023z M5593.268,305.244h88.477c58.982,0,88.477-14.744,88.477-44.237v-44.238h-88.477v44.238h-88.477V84.053h88.477
		v44.238h88.477V84.053c0-29.491-29.494-44.238-88.477-44.238h-88.477c-58.986,0-88.477,14.895-88.477,44.68v176.732
		C5504.791,290.573,5534.281,305.244,5593.268,305.244 M5460.553,305.023V40.036l-88.477-0.221v265.429L5460.553,305.023z
		 M5151.326,305.244l-0.441-110.596h88.477v110.596h88.477v-88.476c-0.148-28.755-21.975-43.499-65.473-44.239
		c43.498,0.149,65.324-14.818,65.473-44.902V84.053c0-29.491-29.494-44.238-88.477-44.238h-176.953v265.429H5151.326z
		 M5239.361,150.41h-88.479V84.053h88.479V150.41z M4841.217,305.023V150.41l88.477,155.056l88.477-0.222l-0.221-265.208h-88.256
		l0.443,155.497l-88.92-155.497l-88.477-0.221v265.429L4841.217,305.023z M4708.502,305.023V40.036l-88.477-0.221v265.429
		L4708.502,305.023z M4575.787,305.244v-44.237h-176.953v-65.915l132.936,0.221l-0.221-44.681l-132.715,0.222v-66.8h176.953V39.815
		h-265.43v265.429H4575.787z M4089.166,305.023V195.091h88.919l-0.442,110.374l88.477-0.222l-0.222-265.208h-88.255l0.442,110.817
		h-88.919V40.036l-88.477-0.221v265.429L4089.166,305.023z M3703.799,254.37c-6.768,0-11.879-2.101-15.335-6.304
		c-3.456-4.202-5.185-10.506-5.185-18.912c0-11.649,5.53-22.488,16.596-32.518l28.852,48.299
		C3719.313,251.225,3711.005,254.37,3703.799,254.37 M3692.127,67.982c0-6.66,1.251-11.62,3.761-14.875
		c2.506-3.256,6.193-4.887,11.059-4.887c5.31,0,9.436,2.146,12.387,6.438c2.948,4.293,4.424,9.031,4.424,14.212
		c0,11.989-5.015,24.57-15.041,37.744C3697.657,94.774,3692.127,81.896,3692.127,67.982 M3797.757,200.555l-31.53-57.002
		c18.58-18.725,27.87-40.181,27.87-64.366c0-23.004-7.631-41.951-22.893-56.847C3755.941,7.448,3735.039,0,3708.496,0
		c-29.495,0-52.644,7.597-69.455,22.783c-16.81,15.189-25.215,35.245-25.215,60.164c0,28.903,11.796,51.835,35.39,68.79
		c-16.517,6.934-28.903,15.926-37.16,26.986c-8.26,11.059-12.387,26.321-12.387,45.786c0,24.331,7.002,45.123,21.01,62.376
		c14.005,17.253,33.984,25.88,59.933,25.88c24.766,0,51.012-9.135,78.73-27.411l10.745,19.89h82.735l-31.218-59.715l24.915-15.932
		v-60.386L3797.757,200.555z M3266.776,305.023V150.41l88.477,155.056l88.476-0.222l-0.221-265.208h-88.255l0.442,155.497
		l-88.919-155.497l-88.476-0.221v265.429L3266.776,305.023z M3134.061,305.244v-44.237h-176.953v-65.915l132.936,0.221
		l-0.221-44.681l-132.715,0.222v-66.8h176.953V39.815h-265.429v265.429H3134.061z M2647.883,305.244l-0.443-110.596h88.477v110.596
		h88.477v-88.476c-0.149-28.755-21.975-43.499-65.473-44.239c43.498,0.149,65.324-14.818,65.473-44.902V84.053
		c0-29.491-29.495-44.238-88.477-44.238h-176.953v265.429H2647.883z M2735.917,150.41h-88.477V84.053h88.477V150.41z
		 M2514.726,305.244v-44.237h-176.954v-65.915l132.936,0.221l-0.221-44.681l-132.715,0.222v-66.8h176.954V39.815h-265.43v265.429
		H2514.726z M2116.581,261.006h-88.477V84.053h88.477V261.006z M2028.104,305.244h88.477c58.982,0,88.477-14.744,88.477-44.237
		V84.053c0-29.491-29.495-44.238-88.477-44.238h-88.477c-58.985,0-88.476,14.895-88.476,44.68v176.732
		C1939.628,290.573,1969.119,305.244,2028.104,305.244 M1718.879,305.244l-0.443-110.596h88.477v110.596h88.476v-88.476
		c-0.148-28.755-21.973-43.499-65.472-44.239c43.499,0.149,65.324-14.818,65.472-44.902V84.053
		c0-29.491-29.494-44.238-88.476-44.238H1629.96v265.429H1718.879z M1806.913,150.41h-88.477V84.053h88.477V150.41z
		 M1459.864,305.244v-44.237h-155.498l155.498-155.055V39.815h-265.43v44.68l155.055,0.221l-155.055,154.171v66.356H1459.864z
		 M973.243,305.023V150.41l88.476,155.056l88.477-0.222l-0.221-265.208h-88.256l0.443,155.497L973.243,40.036l-88.477-0.221v265.429
		L973.243,305.023z M698.744,217.431l16.589-67.685l21.456,67.685H698.744z M597.66,305.465l79.629-0.222l10.617-44.017h63.26
		l14.378,44.017h97.766L776.825,40.036l-88.477-0.221L597.66,305.465z M398.587,305.244l-0.442-110.596h88.477v110.596h88.476
		v-88.476c-0.149-28.755-21.974-43.499-65.473-44.239c43.499,0.149,65.324-14.818,65.473-44.902V84.053
		c0-29.491-29.494-44.238-88.476-44.238H309.668v265.429H398.587z M486.622,150.41h-88.477V84.053h88.477V150.41z M88.477,305.023
		V195.091l132.936,0.221l-0.221-44.681l-132.715,0.222v-66.8H265.43V39.815H0v265.429L88.477,305.023z"/>
	<path fill="#FF8000" d="M8357.49,567.296c11.834-30.186,37.258-53.61,59.174-61.27c3.068-1.152,5.26,1.306,5.26,4.397
		C8422.361,517.895,8396.063,550.671,8357.49,567.296 M8472.33,560.341c-23.23,20.583-60.049,56.047-91.17,58.771
		c-14.027,1.227-28.492-3.25-27.178-20.148l0.877-9.794c84.158-35.188,105.637-69.752,105.637-91.395
		c0-17.667-17.533-19.667-31.559-18.439c-56.982,4.543-120.541,69.289-118.787,126.996c0.877,29.074,15.779,56.479,47.777,53.68
		c43.395-3.797,91.611-49.532,118.348-83.23L8472.33,560.341z M8310.592,470.697c4.383-6.567,17.094-22.254,17.094-30.205
		c0-7.067-8.326-7.663-14.025-7.164c-25.422,2.224-35.066,23.826-48.217,43.086c-46.9,5.87-50.406,13.243-74.076,54.182
		l-4.822,8.372c23.232-5.565,14.904-3.069,41.643-5.409c-16.219,29.244-40.326,53.88-66.627,76.497l4.822,16.362l22.354-20.063
		l0.877,0.806c-5.697,13.308-11.396,30.59-11.396,45.166c0,17.667,10.52,28.672,27.615,27.176
		c37.258-3.259,84.596-54.661,110.459-80.773l-2.193-19.242c-45.586,36.672-61.365,51.303-75.391,52.53
		c-10.082,0.882-13.15-4.592-13.15-14.309c0-26.501,24.984-64.905,39.887-85.642c48.217-1.127,51.723-17.776,72.324-61.538
		L8310.592,470.697z M8109.404,568.685l0.877,0.806c-17.533,22.735-40.326,48.138-40.326,78.172
		c0,16.784,11.396,33.013,29.807,31.402c24.984-2.187,75.391-55.622,92.047-76.072l-3.066-16.074
		c-14.465,12.309-42.08,43.434-60.928,45.082c-6.576,0.575-13.588-4.111-13.588-11.178c0-17.667,21.477-41.189,34.189-53.343
		c10.08-9.274,18.408-16.628,18.408-30.32c-0.875-7.873-3.945-14.672-10.52-22.489c-4.383-4.916-28.49,2.493-69.693,11.84
		c1.754-4.129,3.068-8.219,3.068-12.636c0-3.975-3.508-7.202-7.891-6.817c-10.52,0.92-55.229,36.633-55.229,68.434
		c0,9.275,2.631,12.579,11.836,12.657c-8.328,12.653-17.533,24.501-28.932,34.772l1.754,19.281
		c18.85-20.641,37.26-33.736,52.6-59.37L8109.404,568.685z M7953.361,569.085c1.754,0.73-18.848,30.358-18.848,53.326
		c0,7.508,2.191,13.059,5.26,19.857c-10.082,10.156-19.287,19.354-33.752,20.619c-10.957,0.96-19.285-2.287-19.285-15.096
		c0-13.692,8.328-31.646,17.971-42.207C7917.857,591.625,7938.457,579.224,7953.361,569.085 M8034.016,596.481
		c-13.592,11.348-25.863,29.205-45.15,27.358c8.328-17.954,17.096-34.18,17.096-53.613c0-13.25-2.631-22.296-15.779-24.679
		c4.82-3.071,10.08-6.183,10.08-12.808c0-11.925-14.465-15.076-24.107-13.791c-26.738,3.664-58.297,18.351-81.967,39.856
		c-24.545,21.139-40.766,44.642-39.889,77.691c1.754,40.039,22.793,61.166,45.586,59.172c27.615-2.416,49.094-18.429,67.502-39.032
		c32-2.8,51.285-15.087,71.01-41.988L8034.016,596.481z M7675.029,705.182c5.699,0.826,11.395,1.652,17.533,1.115
		c7.014-0.612,13.588-2.513,20.164-4.414c10.518,4.381,19.285,7.147,31.119,6.111c47.34-4.141,86.789-39.394,119.227-74.033
		l-3.07-20.048c-46.898,44.737-55.666,52.571-93.361,53.219c49.092-48.021,71.008-80.415,71.008-104.707
		c0-11.483-6.574-20.184-18.41-19.147c-23.67,2.07-67.939,35.095-86.789,50.436l-0.875-0.807
		c8.766-20.643,22.354-38.174,37.256-55.378c7.014-8.122,29.807-31.317,29.807-41.034c0-8.392-14.025-9.373-20.162-8.836
		c-16.656,1.457-24.547,14.956-35.066,27.36L7627.252,651.06l1.754,20.605l69.254-72.753l0.877,0.807
		c-28.49,51.077-50.406,89.214-70.57,119.687c-17.971,27.189-27.613,50.117-27.176,72.163c0,7.95,2.631,19.646,12.713,18.764
		c8.326-0.729,16.217-13.345,19.723-20.277L7675.029,705.182z M7741.654,661.369c-11.834-2.94-24.109-3.191-36.82-1.196
		c11.836-16.936,24.109-33.026,40.326-46.371c5.699-4.473,26.74-20.006,33.752-20.619c3.508-0.308,4.822,2.67,4.822,5.762
		c0,7.95-6.137,15.996-10.959,22.601L7741.654,661.369z M7614.543,662.331c-21.479,18.221-38.574,32.967-66.627,30.563
		c28.053-19.681,56.984-49.153,56.984-85.371c0-19.435-6.576-33.876-8.33-50.506c-1.314-12.253-3.945-15.997-17.094-14.848
		c-15.779,1.381-24.107,16.243-24.984,30.896l-95.117,96.216c-3.506,3.84-10.52,10.638-10.52,16.379c0,3.976,3.068,8.124,7.451,7.74
		c3.945-0.346,7.014-3.705,9.645-6.585c7.889,31.552,40.324,45.498,69.693,44.254c35.064-1.301,82.844-45.674,109.582-74.956
		l-4.385-16.4L7614.543,662.331z M7554.93,596.877c2.631,14.787,4.385,26.56,5.699,35.719c-1.314,25.732-8.328,33.854-34.629,52.498
		c-8.328-10.756-17.971-23.604-34.188-23.067L7554.93,596.877z M7465.516,665.652c-7.891,7.315-27.176,24.462-37.695,25.382
		c-4.383,0.384-7.891-3.285-7.891-7.26c0-30.477,53.914-68.761,53.914-85.986c-1.314-9.16-3.945-16.88-6.574-23.275
		c-2.629-5.953-5.26-7.932-7.014-7.778c-12.711,1.111-93.363,62.495-128.43,110.615c-1.752,2.36-5.699,6.682-8.766,6.949
		c-2.631,0.23-4.822-1.787-4.822-4.437c0-10.601,55.229-60.042,55.229-77.268c0-2.649,2.191-9.025-24.107-7.607
		c-7.451,0.652-11.396,1.438-17.094,6.796c-25.424,23.866-53.037,70.892-51.725,101.253c0.439,14.979,5.262,42.383,24.547,40.695
		c11.836-1.035,28.055-24.097,34.629-33.063c19.725-27.344,42.078-52.267,67.502-73.482l0.875,0.807
		c-14.025,21.544-37.695,52.766-37.695,79.267c0,15.018,7.891,28.46,24.547,27.003c31.998-2.799,77.145-61.075,100.377-83.867
		l-3.508-19.127L7465.516,665.652z M7184.988,692.844l0.875,0.808c-5.697,12.424-16.217,36.753-16.217,50.887
		c0,12.81,6.574,22.834,21.039,21.569c21.479-1.88,80.213-54.278,99.063-77.569l-3.508-16.036
		c-18.848,14.458-43.832,39.169-62.242,40.78c-7.014,0.614-13.588-1.903-13.588-9.411c0-20.759,38.135-55.013,38.135-69.146
		c0-9.718-4.383-14.192-12.713-16.997c3.945-1.67,15.342-7.084,15.342-12.385c0-5.3-8.328-20.913-28.49-18.708
		c-50.846,5.773-164.811,72.279-163.059,127.336c0.877,22.891,26.301,49.817,38.574,48.743
		c10.082-0.882,38.133-26.303,46.463-33.656L7184.988,692.844z M7208.656,631.148l0.877,0.806
		c-86.787,95.929-100.377,95.793-109.143,98.327c-6.574,1.899-8.328-5.897-8.768-8.067
		C7091.623,700.572,7104.336,672.517,7208.656,631.148 M6996.949,666.011l0.877,0.807c-17.533,22.734-40.326,48.138-40.326,78.173
		c0,16.783,11.396,33.012,29.805,31.401c24.986-2.187,75.395-55.622,92.051-76.072l-3.068-16.073
		c-14.465,12.307-42.08,43.432-60.928,45.081c-6.574,0.575-13.59-4.111-13.59-11.178c0-17.667,21.479-41.189,34.191-53.343
		c10.08-9.274,18.41-16.629,18.41-30.32c-0.877-7.873-3.945-14.672-10.521-22.488c-4.383-4.917-28.49,2.492-69.693,11.839
		c1.754-4.129,3.07-8.219,3.07-12.636c0-3.975-3.508-7.201-7.893-6.818c-10.518,0.92-55.229,36.634-55.229,68.435
		c0,9.274,2.631,12.579,11.836,12.657c-8.33,12.653-17.533,24.501-28.93,34.772l1.754,19.281
		c18.846-20.642,37.256-33.736,52.598-59.37L6996.949,666.011z M6704.148,608.592c17.533-1.976,35.064,3.999,35.064-5.276
		c0-8.833-28.928-9.395-35.064-10.183v-0.884c71.885-28.813,146.4-45.492,221.793-53.413l-43.832,60.37
		c-28.492,39.152-109.145,149.12-109.145,192.846c0,12.367,12.711,17.438,23.67,16.48c13.588-1.189,31.121-28.782,39.012-39.631
		c5.26-7.086,18.408-24.136,18.408-32.97c0-6.625-5.697-7.452-10.08-5.303l-0.877-0.806l103.006-166.25
		c6.137-10.254,20.164-27.824,16.219-38.079c-11.396-29.479-9.205-43.363-36.381-47.169c-21.479-2.979-44.271-1.868-66.188,0.049
		c-54.352,4.755-113.965,16.154-163.934,43.493c-28.492,15.302-27.615,24.059-32.875,53.228c-1.314,7.624-3.945,18.896-3.945,25.964
		c0,11.925,9.645,11.082,19.727,10.199L6704.148,608.592z M6449.488,615.414c20.602-14.17,39.449-34.811,39.449-61.312
		c0-22.526-21.479-39.64-43.395-36.838c-56.98,7.193-132.373,66.35-121.854,136.98c-46.463,28.8-89.857,52.913-96.432,123.274
		c-3.945,40.097,29.367,66.774,68.816,63.322c33.752-2.952,65.75-28.277,93.363-47.478c7.451,6.856,27.178,29.866,38.135,28.907
		c15.342-1.343,40.764-45.085,40.764-57.452c0-3.533-3.506-7.644-7.012-7.336c-3.508,0.307-7.891,4.223-12.713,4.645
		c-5.258,0.46-11.396-2.978-13.588-10.735c17.973-17.915,49.094-40.955,49.094-67.897c0-11.042-4.822-22.988-8.328-33.281
		l-70.133,62.229c-10.959-15.825-18.41-33.282-21.479-52.89L6449.488,615.414z M6357.879,747.982
		c-20.164,12.806-42.08,24.883-65.75,26.953c-5.697,0.499-21.039,2.282-20.6-6.148c0.877-21.277,41.641-64.595,61.803-74.751
		L6357.879,747.982z M6378.48,620.743c8.328-31.647,17.094-68.19,64.434-81.165c3.506-0.748,7.451,0.673,7.451,4.648
		C6450.365,570.727,6398.645,606.612,6378.48,620.743 M6057.631,788.826c-7.889,7.316-27.176,24.462-37.695,25.382
		c-4.383,0.384-7.891-3.285-7.891-7.26c0-30.477,53.914-68.76,53.914-85.986c-1.314-9.16-3.945-16.88-6.574-23.275
		c-2.631-5.953-5.26-7.932-7.014-7.778c-12.711,1.112-93.363,62.495-128.428,110.614c-1.754,2.361-5.699,6.682-8.768,6.951
		c-2.631,0.229-4.822-1.787-4.822-4.438c0-10.6,55.229-60.042,55.229-77.267c0-2.65,2.193-9.026-24.105-7.608
		c-7.453,0.652-11.398,1.439-17.096,6.796c-25.424,23.866-53.037,70.893-51.723,101.253c0.438,14.979,5.26,42.383,24.547,40.695
		c11.834-1.035,28.053-24.096,34.627-33.064c19.725-27.343,42.08-52.266,67.502-73.481l0.877,0.806
		c-14.025,21.545-37.697,52.768-37.697,79.268c0,15.018,7.891,28.461,24.549,27.004c31.998-2.801,77.145-61.076,100.375-83.868
		l-3.506-19.127L6057.631,788.826z M5799.021,757.567c1.752,0.729-18.85,30.357-18.85,53.325c0,7.509,2.193,13.059,5.26,19.856
		c-10.08,10.158-19.285,19.355-33.75,20.62c-10.959,0.959-19.287-2.287-19.287-15.096c0-13.692,8.328-31.646,17.973-42.207
		C5763.516,780.107,5784.117,767.704,5799.021,757.567 M5879.672,784.961c-13.588,11.348-25.859,29.205-45.146,27.358
		c8.328-17.954,17.094-34.181,17.094-53.613c0-13.251-2.629-22.296-15.779-24.679c4.822-3.072,10.082-6.183,10.082-12.808
		c0-11.926-14.465-15.076-24.107-13.792c-26.738,3.664-58.299,18.352-81.969,39.856c-24.545,21.14-40.764,44.642-39.887,77.692
		c1.752,40.039,22.793,61.166,45.586,59.172c27.615-2.416,49.092-18.43,67.502-39.032c31.998-2.799,51.285-15.087,71.008-41.988
		L5879.672,784.961z M5682.426,725.808c18.848-1.649,35.066-24.712,35.066-42.379c0-7.949-6.574-13.116-14.465-12.427
		c-17.096,1.496-38.135,19.237-38.135,37.347C5664.893,718.95,5671.906,726.728,5682.426,725.808 M5703.027,811.016
		c-17.531,14.343-40.324,39.745-63.559,41.778c-20.162,1.765-26.736-7.378-23.229-25.794c18.408-14.419,61.803-57.524,61.803-79.608
		c0-9.718-11.834-11.332-19.285-10.681c-26.301,2.301-81.092,59.654-81.092,113.539c0,22.526,11.836,51.525,37.695,49.263
		c33.314-2.914,71.887-46.04,91.609-72.059L5703.027,811.016z M5580.299,709.567c4.385-6.567,17.096-22.255,17.096-30.205
		c0-7.067-8.328-7.664-14.025-7.165c-25.424,2.224-35.066,23.827-48.217,43.086c-46.9,5.87-50.408,13.244-74.076,54.183
		l-4.822,8.372c23.23-5.565,14.902-3.07,41.641-5.41c-16.219,29.245-40.326,53.881-66.625,76.498l4.82,16.362l22.355-20.064
		l0.877,0.807c-5.699,13.307-11.396,30.589-11.396,45.165c0,17.667,10.52,28.672,27.615,27.177
		c37.256-3.26,84.596-54.662,110.457-80.775l-2.191-19.241c-45.586,36.673-61.365,51.304-75.393,52.53
		c-10.082,0.883-13.15-4.592-13.15-14.309c0-26.501,24.984-64.904,39.889-85.642c48.217-1.127,51.723-17.776,72.324-61.538
		L5580.299,709.567z M5432.584,747.666c18.848-1.648,35.066-24.71,35.066-42.378c0-7.95-6.574-13.116-14.465-12.426
		c-17.096,1.495-38.135,19.237-38.135,37.346C5415.051,740.808,5422.064,748.585,5432.584,747.666 M5453.186,832.875
		c-17.533,14.342-40.326,39.745-63.559,41.778c-20.162,1.764-26.736-7.378-23.23-25.793c18.41-14.42,61.805-57.526,61.805-79.61
		c0-9.717-11.834-11.332-19.287-10.68c-26.299,2.301-81.09,59.655-81.09,113.54c0,22.525,11.836,51.523,37.695,49.262
		c33.313-2.915,71.887-46.041,91.611-72.059L5453.186,832.875z M5238.848,803.042c-7.014,26.673-77.584,85.848-82.844,84.983
		c-4.82-0.461-7.012-3.804-6.574-7.816C5152.059,850.828,5161.703,834.966,5238.848,803.042 M5333.965,711.242
		c7.014-11.655,18.848-30.799,18.848-44.05c0-7.95-5.26-16.324-14.025-15.558c-31.998,2.801-70.572,97.603-85.037,124.044
		c-5.697-6.127-9.203-12.004-18.408-10.757c-37.258,5.468-124.484,57.269-124.484,109.387c0,15.459,12.273,56.786,31.998,55.061
		s60.488-48.135,75.83-62.728c-1.754,11.195-3.508,22.833-3.508,33.875c0,14.133,6.576,31.225,23.232,29.768
		c31.998-2.799,77.145-53.126,97.746-77.895l-3.068-14.308c-14.025,10.502-54.352,49.806-69.256,51.11
		c-9.643,0.844-10.082-14.135-10.082-21.202c0-28.269,21.041-58.817,35.506-83.05L5333.965,711.242z M5001.277,860.927
		c11.836-30.187,37.258-53.611,59.174-61.271c3.068-1.152,5.26,1.307,5.26,4.397C5066.15,811.526,5039.85,844.302,5001.277,860.927
		 M5116.119,853.971c-23.232,20.583-60.051,56.048-91.172,58.771c-14.027,1.227-28.49-3.249-27.176-20.148l0.877-9.794
		c84.158-35.188,105.637-69.752,105.637-91.394c0-17.668-17.535-19.667-31.561-18.44c-56.982,4.544-120.539,69.289-118.785,126.996
		c0.875,29.074,15.779,56.48,47.775,53.681c43.396-3.797,91.611-49.533,118.35-83.231L5116.119,853.971z M4772.914,959.083
		c5.699,0.827,11.396,1.653,17.533,1.117c7.012-0.614,13.588-2.514,20.162-4.415c10.52,4.38,19.287,7.147,31.121,6.111
		c47.34-4.142,86.789-39.395,119.225-74.033l-3.068-20.048c-46.9,44.737-55.668,52.57-93.363,53.219
		c49.094-48.021,71.01-80.415,71.01-104.707c0-11.484-6.576-20.184-18.41-19.148c-23.67,2.07-67.941,35.096-86.789,50.437
		l-0.877-0.807c8.768-20.644,22.355-38.175,37.258-55.379c7.014-8.121,29.807-31.316,29.807-41.033
		c0-8.393-14.025-9.373-20.162-8.836c-16.656,1.457-24.547,14.956-35.066,27.359l-116.156,136.042l1.752,20.605l69.256-72.753
		l0.877,0.807c-28.49,51.077-50.406,89.213-70.57,119.687c-17.971,27.19-27.615,50.116-27.176,72.162
		c0,7.951,2.631,19.646,12.711,18.766c8.328-0.73,16.219-13.346,19.725-20.277L4772.914,959.083z M4839.539,915.271
		c-11.834-2.94-24.107-3.191-36.818-1.196c11.834-16.937,24.107-33.026,40.324-46.371c5.699-4.473,26.738-20.006,33.752-20.62
		c3.506-0.307,4.822,2.67,4.822,5.762c0,7.95-6.137,15.996-10.959,22.602L4839.539,915.271z M4539.292,797.993
		c0.438-10.197,49.091-55.53,162.179-69.399l0.877,0.808c-23.67,18.413-31.998,32.833-31.998,33.717
		c0,4.417,2.631,6.395,7.014,6.011c3.506-0.306,7.889-3.34,10.957-5.375c17.096-13.862,20.602-16.378,39.451-25.094
		c25.859-12.421,36.818-20.888,36.818-53.573c0-8.833-1.314-12.252-11.396-13.578c-18.41-2.364-36.82-2.962-55.229-1.352
		c-95.994,8.398-175.332,57.299-188.919,81.014c-7.013,12.539-14.026,45.396-14.026,59.971c0,26.501,22.793,31.573,44.709,33.189
		c21.039,1.693,142.455,8.738,142.455,31.263c0,7.067-42.955,56.318-199.437,64.268v-0.883c2.63-2.882,4.821-5.281,7.451-7.277
		c3.069-2.036,7.452-4.628,7.452-9.044c0-2.65-1.315-2.978-3.507-2.785c-6.575,0.575-32.435,11.229-37.696,16.106
		c-7.013,7.238-22.354,31.989-22.354,41.266c0,25.618,53.475,20.94,70.57,19.444c63.119-5.523,216.095-33.041,216.095-120.935
		c0-21.642-20.602-43.249-64.873-49.976C4533.592,807.767,4539.292,804.176,4539.292,797.993"/>
</g>
</svg>
